<?xml version="1.0" standalone="no"?>
<!DOCTYPE svg PUBLIC "-//W3C//DTD SVG 20010904//EN"
 "http://www.w3.org/TR/2001/REC-SVG-20010904/DTD/svg10.dtd">
<svg version="1.0" xmlns="http://www.w3.org/2000/svg"
 width="715.000000pt" height="715.000000pt" viewBox="0 0 715.000000 715.000000"
 preserveAspectRatio="xMidYMid meet">
<metadata>
Created by potrace 1.11, written by Peter Selinger 2001-2013
</metadata>
<g transform="translate(0.000000,715.000000) scale(0.100000,-0.100000)"
fill="#000000" stroke="none">
<path d="M198 5910 l2 -1070 1375 0 1375 0 0 1070 0 1070 -1377 0 -1378 0 3
-1070z"/>
<path d="M200 3555 l0 -1075 1955 0 1955 0 0 1075 0 1075 -1955 0 -1955 0 0
-1075z"/>
<path d="M200 1190 l0 -1070 2515 0 c1383 0 2515 3 2515 8 0 93 0 2111 0 2120
0 9 -510 12 -2515 12 l-2515 0 0 -1070z"/>
</g>
</svg>
