<?xml version="1.0" standalone="no"?>
<!DOCTYPE svg PUBLIC "-//W3C//DTD SVG 20010904//EN"
 "http://www.w3.org/TR/2001/REC-SVG-20010904/DTD/svg10.dtd">
<svg version="1.0" xmlns="http://www.w3.org/2000/svg"
 width="690.000000pt" height="690.000000pt" viewBox="0 0 690.000000 690.000000"
 preserveAspectRatio="xMidYMid meet">
<metadata>
Created by potrace 1.11, written by Peter Selinger 2001-2013
</metadata>
<g transform="translate(0.000000,690.000000) scale(0.100000,-0.100000)"
fill="#000000" stroke="none">
<path d="M4080 6870 c0 -6 -6 -10 -14 -10 -8 0 -18 -10 -22 -22 -4 -13 -10
-25 -14 -28 -4 -3 -19 -29 -34 -57 -14 -29 -46 -87 -71 -128 -24 -41 -42 -75
-39 -75 3 0 -4 -10 -16 -22 -11 -12 -20 -25 -20 -30 0 -5 -20 -42 -45 -82 -25
-41 -45 -79 -45 -85 0 -6 -4 -11 -10 -11 -5 0 -10 -6 -10 -12 0 -7 -15 -29
-33 -48 -39 -43 -31 -42 -302 -36 -88 1 -164 0 -170 -3 -5 -3 -23 -7 -40 -8
-16 -1 -50 -4 -75 -6 -25 -3 -54 0 -65 6 -26 13 -75 67 -75 83 0 7 -3 14 -7
16 -13 5 -75 98 -66 98 4 0 3 4 -3 8 -6 4 -30 36 -54 72 -24 36 -48 70 -52 75
-18 22 -98 148 -98 156 0 4 -3 9 -7 11 -5 2 -20 22 -36 45 -27 43 -77 69 -85
45 -2 -7 -7 -10 -11 -7 -5 2 -30 -6 -57 -19 -27 -13 -71 -34 -99 -46 -27 -12
-78 -36 -112 -51 -35 -16 -93 -43 -130 -59 -38 -17 -85 -39 -106 -50 -22 -11
-45 -20 -53 -20 -8 0 -14 -4 -14 -9 0 -5 -13 -11 -29 -14 -16 -3 -35 -12 -42
-20 -8 -7 -17 -14 -22 -15 -34 -6 -87 -27 -87 -34 0 -4 -6 -8 -13 -8 -7 0 -31
-8 -53 -19 -21 -10 -57 -26 -79 -36 -189 -84 -205 -97 -184 -151 4 -10 8 -31
8 -46 1 -16 5 -28 11 -28 5 0 7 -6 4 -14 -3 -8 -1 -17 5 -20 6 -4 8 -13 4 -21
-3 -8 1 -15 8 -15 7 0 10 -2 7 -6 -5 -5 -1 -26 22 -111 26 -95 31 -115 35
-138 2 -11 4 -21 5 -22 2 -2 3 -6 4 -10 2 -5 8 -28 16 -53 7 -25 14 -52 15
-60 1 -8 8 -35 15 -60 20 -72 8 -108 -56 -165 -121 -107 -190 -180 -285 -303
-23 -29 -53 -59 -68 -66 -25 -13 -76 -14 -133 -2 -37 8 -72 15 -105 21 -40 8
-74 15 -103 21 -14 3 -34 7 -45 9 -11 2 -31 6 -45 9 -14 4 -38 8 -55 11 -16 3
-43 8 -60 12 -16 4 -34 6 -39 5 -4 -2 -14 3 -22 9 -8 6 -14 9 -14 7 0 -3 -29
1 -65 7 l-66 13 -26 -35 c-15 -20 -29 -45 -30 -56 -2 -11 -8 -26 -13 -32 -5
-7 -7 -15 -3 -18 3 -4 1 -7 -5 -7 -7 0 -11 -3 -10 -7 2 -9 -9 -48 -22 -78 -5
-11 -45 -119 -90 -240 -45 -121 -87 -233 -94 -250 -7 -16 -22 -55 -32 -85 -10
-30 -21 -57 -24 -60 -3 -3 -6 -12 -8 -20 -2 -14 -15 -48 -47 -125 -47 -112
-52 -177 -17 -188 17 -6 72 -37 82 -47 3 -3 28 -17 55 -31 108 -57 120 -64
123 -71 2 -5 10 -8 18 -8 8 0 14 -5 14 -11 0 -5 4 -8 9 -4 5 3 12 1 16 -4 3
-5 18 -16 33 -24 78 -41 112 -62 112 -69 0 -4 9 -8 20 -8 11 0 20 -3 20 -8 0
-4 12 -13 28 -19 33 -15 73 -51 88 -79 14 -24 15 -134 1 -151 -6 -8 -6 -13 0
-13 5 0 9 -10 7 -22 -1 -13 -3 -23 -4 -23 -1 0 -2 -24 -3 -53 -1 -28 0 -52 3
-52 3 0 6 -21 6 -47 2 -65 9 -116 18 -131 4 -7 2 -12 -4 -12 -6 0 -8 -4 -5
-10 11 -18 15 -54 10 -80 -6 -30 -49 -83 -59 -73 -3 3 -6 1 -6 -5 0 -7 -7 -12
-15 -12 -8 0 -15 -4 -15 -10 0 -5 -5 -10 -11 -10 -7 0 -19 -8 -28 -17 -9 -10
-22 -19 -29 -21 -8 -1 -38 -20 -67 -42 -30 -22 -59 -40 -65 -40 -5 0 -10 -4
-10 -10 0 -5 -11 -12 -24 -16 -14 -3 -27 -12 -30 -20 -3 -8 -12 -14 -21 -14
-8 0 -15 -3 -15 -7 -1 -5 -48 -37 -105 -73 -112 -70 -133 -97 -116 -143 6 -15
7 -27 3 -27 -4 0 -1 -4 7 -9 8 -5 15 -15 17 -23 1 -7 18 -49 39 -93 21 -44 47
-100 59 -125 11 -25 20 -48 18 -52 -1 -5 3 -8 8 -8 6 0 10 -5 10 -11 0 -6 14
-41 31 -78 17 -36 40 -86 51 -111 11 -25 33 -73 50 -107 16 -35 31 -68 32 -75
2 -7 16 -42 33 -78 40 -84 76 -166 93 -210 22 -55 61 -88 98 -82 18 2 32 7 32
11 0 4 8 7 18 8 24 2 67 12 97 23 14 5 29 9 33 8 4 -1 20 4 36 11 16 6 45 14
65 17 20 3 44 10 54 15 9 5 17 7 17 5 0 -3 11 -1 25 4 14 5 36 12 48 14 12 3
47 12 77 21 30 9 63 16 73 16 9 0 17 5 17 10 0 6 4 8 9 4 6 -3 30 0 55 6 42
10 46 9 70 -14 14 -14 22 -28 19 -31 -4 -3 2 -6 12 -6 10 0 16 -3 12 -6 -7 -7
160 -174 174 -174 5 0 9 -6 9 -14 0 -8 9 -18 20 -21 11 -3 20 -11 20 -16 0 -5
5 -9 10 -9 6 0 18 -8 29 -17 10 -10 33 -29 51 -43 17 -14 37 -30 45 -35 12
-10 30 -67 28 -95 -1 -18 -10 -76 -17 -110 -10 -46 -16 -75 -21 -100 -3 -14
-7 -36 -10 -50 -2 -14 -7 -41 -10 -60 -3 -19 -10 -51 -15 -70 -5 -19 -11 -51
-14 -70 -3 -19 -9 -50 -15 -67 -5 -18 -8 -33 -6 -33 3 0 0 -12 -6 -27 -5 -14
-10 -46 -11 -70 0 -36 4 -48 23 -61 13 -9 26 -17 29 -17 5 0 183 -67 225 -85
40 -16 90 -35 95 -35 7 0 224 -82 275 -103 21 -9 42 -18 45 -18 3 -1 14 -5 25
-8 11 -4 24 -6 29 -6 5 1 12 -3 16 -9 3 -6 16 -13 28 -16 12 -2 27 -7 32 -10
5 -3 18 -8 29 -10 10 -2 39 -13 64 -24 25 -12 48 -21 51 -21 2 0 17 -5 33 -11
15 -6 29 -10 31 -10 1 1 15 -5 31 -14 67 -34 108 -27 151 29 13 18 13 19 0 12
-9 -4 -8 -1 3 7 9 8 17 21 17 30 0 8 4 17 8 19 5 1 28 39 52 83 24 44 58 103
76 132 18 28 30 54 27 57 -4 3 -1 6 5 6 6 0 14 9 17 21 4 11 19 40 35 62 15
23 30 52 34 63 4 12 15 29 26 39 11 10 20 24 20 32 0 8 5 11 10 8 6 -3 10 -1
10 5 0 18 96 44 113 30 10 -9 321 -5 378 5 40 6 84 11 98 9 14 -1 31 -2 38 -3
22 -2 59 -45 126 -146 37 -55 70 -104 75 -110 4 -5 18 -27 31 -48 13 -21 30
-44 38 -52 8 -8 12 -15 8 -15 -3 0 -1 -6 4 -13 46 -55 61 -76 61 -85 0 -6 6
-17 13 -24 7 -7 23 -30 36 -51 28 -45 60 -77 77 -77 7 0 25 5 41 12 15 6 31
11 36 10 4 -1 7 2 7 8 0 6 3 9 8 8 4 -1 27 8 51 20 25 12 51 22 58 22 7 0 13
5 13 10 0 6 4 10 9 10 5 0 22 5 38 12 15 6 31 11 36 10 4 -1 7 2 7 7 0 7 12
13 50 25 3 1 25 11 50 23 39 19 172 79 320 146 25 11 48 20 53 19 4 -1 7 3 7
10 0 6 3 9 6 6 3 -3 44 12 92 34 113 52 135 62 145 60 4 -1 7 2 7 7 0 5 13 12
29 16 33 7 59 40 56 70 -4 32 -14 77 -26 115 -6 19 -19 67 -29 105 -10 39 -25
97 -34 129 -9 33 -18 69 -21 80 -2 12 -4 21 -5 21 -1 0 -3 7 -5 15 -2 8 -13
49 -25 90 -28 97 -32 149 -12 180 21 33 38 50 52 50 6 0 8 5 5 10 -3 6 -1 10
5 10 6 0 33 22 60 49 27 27 51 46 54 43 3 -3 6 0 6 6 0 6 17 28 38 49 20 21
60 67 87 103 81 104 101 119 163 115 35 -3 55 -6 127 -22 28 -6 39 -8 90 -17
11 -1 31 -6 45 -9 24 -6 58 -13 125 -24 17 -2 37 -7 45 -10 8 -3 24 -7 35 -8
33 -4 74 -13 83 -19 5 -3 26 -6 46 -8 21 -1 39 -5 41 -8 2 -4 18 -5 34 -2 30
4 66 49 75 90 1 10 9 31 16 47 7 17 12 34 11 39 -1 5 2 12 6 15 10 6 38 91 35
104 -1 4 3 7 8 7 6 0 10 6 10 14 0 8 5 27 12 43 6 15 12 33 14 38 1 6 8 24 15
40 6 17 13 35 15 40 6 22 29 80 34 85 3 3 6 10 7 15 4 20 56 160 63 170 4 6
10 24 14 40 4 17 14 44 21 60 14 31 65 162 69 180 2 6 9 24 16 40 14 34 21 98
11 112 -6 9 -107 73 -116 73 -2 0 -28 14 -57 31 -62 37 -91 53 -173 99 -33 18
-72 41 -87 51 -14 11 -29 19 -32 19 -3 0 -30 16 -61 35 -30 20 -55 33 -55 29
0 -4 -15 12 -33 34 -30 39 -32 46 -30 109 6 181 1 346 -12 403 -12 56 -7 131
11 151 9 10 110 81 223 156 113 76 208 141 209 145 2 5 10 8 18 8 8 0 14 5 14
11 0 5 5 7 10 4 6 -3 10 -2 10 2 0 5 22 22 49 37 26 16 55 41 64 55 17 30 20
22 -49 166 -21 44 -39 85 -39 92 0 7 -6 18 -13 25 -6 6 -12 16 -12 20 0 5 -19
48 -41 96 -23 48 -42 93 -42 100 0 6 -4 12 -9 12 -4 0 -8 9 -8 20 0 11 -4 20
-10 20 -5 0 -10 6 -10 13 0 7 -12 38 -26 67 -25 51 -46 99 -49 110 0 3 -11 25
-23 49 -12 25 -22 51 -22 58 0 7 -5 13 -11 13 -5 0 -7 5 -4 10 3 6 2 10 -3 10
-5 0 -9 6 -9 13 0 6 -12 36 -27 66 -14 30 -26 61 -26 68 0 7 -4 13 -10 13 -5
0 -10 7 -10 15 0 42 -64 108 -84 88 -3 -4 -16 -8 -28 -9 -27 -4 -62 -12 -65
-14 -2 -2 -6 -3 -10 -4 -5 -2 -28 -8 -53 -15 -25 -7 -52 -15 -60 -17 -83 -19
-196 -50 -200 -54 -3 -3 -9 -6 -15 -7 -56 -8 -73 -12 -95 -21 -14 -5 -28 -10
-32 -11 -5 0 -9 -1 -10 -2 -7 -2 -36 -9 -63 -15 -68 -14 -96 -6 -135 40 -14
17 -44 51 -67 75 -24 24 -43 47 -43 52 0 4 -4 9 -9 11 -9 3 -100 79 -133 111
-10 9 -21 17 -24 17 -3 0 -11 6 -18 13 -7 6 -27 23 -45 37 -42 31 -75 92 -58
109 8 8 8 11 -2 11 -7 0 -9 4 -6 10 7 11 10 25 19 86 4 22 11 55 16 74 5 19
11 53 15 76 3 22 9 55 14 72 5 17 7 33 3 36 -3 3 -1 6 4 6 5 0 10 12 10 28 1
25 5 50 19 112 38 168 39 182 18 206 -10 11 -31 25 -48 31 -16 6 -39 15 -50
19 -11 4 -22 8 -25 9 -5 2 -27 10 -80 32 -19 8 -42 16 -50 18 -8 2 -55 19
-105 38 -108 41 -124 47 -128 45 -1 -1 -13 5 -27 12 -14 8 -34 15 -45 17 -10
2 -22 7 -25 11 -5 7 -27 14 -47 15 -7 0 -13 4 -13 9 0 5 -6 8 -12 7 -7 -1 -29
5 -48 13 -19 9 -60 24 -90 34 -30 11 -57 22 -60 25 -6 7 -100 40 -117 41 -7 1
-13 6 -13 11 0 6 -3 7 -7 4 -3 -4 -11 -2 -18 3 -6 5 -20 11 -31 13 -10 1 -23
5 -29 9 -19 12 -85 18 -85 8z"/>
</g>
</svg>
