<?xml version="1.0" standalone="no"?>
<!DOCTYPE svg PUBLIC "-//W3C//DTD SVG 20010904//EN"
 "http://www.w3.org/TR/2001/REC-SVG-20010904/DTD/svg10.dtd">
<svg version="1.0" xmlns="http://www.w3.org/2000/svg"
 width="662.000000pt" height="662.000000pt" viewBox="0 0 662.000000 662.000000"
 preserveAspectRatio="xMidYMid meet">
<metadata>
Created by potrace 1.11, written by Peter Selinger 2001-2013
</metadata>
<g transform="translate(0.000000,662.000000) scale(0.100000,-0.100000)"
fill="#000000" stroke="none">
<path d="M815 6579 c-346 -22 -566 -149 -709 -411 -53 -95 -85 -236 -96 -413
-13 -202 -13 -4650 0 -4865 11 -195 42 -329 97 -430 107 -195 267 -320 478
-375 86 -23 132 -28 325 -35 294 -12 4477 -12 4770 0 188 7 241 13 322 34 148
38 245 93 353 201 137 136 198 269 225 487 8 68 10 775 8 2603 -3 2372 -5
2514 -22 2584 -39 163 -92 264 -194 372 -121 129 -245 193 -455 236 -75 15
-287 17 -2527 19 -1345 1 -2503 -2 -2575 -7z m2875 -324 c37 -13 72 -36 107
-70 90 -88 88 -71 88 -765 0 -695 2 -677 -90 -767 -92 -89 16 -83 -1425 -83
-1036 0 -1275 2 -1312 14 -91 27 -163 98 -189 186 -20 66 -20 1234 0 1300 21
71 72 132 137 165 47 24 75 30 158 36 56 3 634 6 1286 5 1146 -2 1187 -2 1240
-21z m1895 -2130 c67 -34 117 -92 137 -158 18 -60 19 -1243 1 -1303 -31 -101
-111 -166 -228 -184 -49 -7 -732 -10 -2245 -8 -1873 3 -2181 5 -2215 18 -58
21 -148 114 -165 170 -10 34 -14 175 -17 586 -6 689 0 746 84 830 41 41 81 63
136 74 23 4 1035 7 2248 6 l2205 -1 59 -30z m-1299 -2092 c53 -28 99 -75 125
-125 35 -69 40 -179 37 -754 -4 -613 -4 -611 -74 -692 -44 -52 -90 -77 -169
-91 -83 -15 -3028 -15 -3110 0 -70 13 -102 28 -150 71 -91 80 -98 136 -93 838
4 594 5 598 63 674 31 40 99 85 148 96 18 5 741 7 1607 7 l1575 -2 41 -22z"/>
</g>
</svg>
